<svg width="35" height="35" viewBox="0 0 35 35" fill="none" xmlns="http://www.w3.org/2000/svg">
<rect x="0.466667" y="0.466667" width="34.0667" height="34.0667" rx="17.0333" stroke="#8F8F8F" stroke-width="0.933333"/>
<path d="M15.7497 10.75C15.3354 10.75 14.9997 11.0858 14.9997 11.5C14.9997 11.9142 15.3354 12.25 15.7497 12.25V10.75ZM18.6747 12.25C19.0889 12.25 19.4247 11.9142 19.4247 11.5C19.4247 11.0858 19.0889 10.75 18.6747 10.75V12.25ZM15.4875 23.0191C15.4821 22.605 15.1419 22.2736 14.7277 22.2791C14.3136 22.2845 13.9822 22.6247 13.9877 23.0389L15.4875 23.0191ZM17.2122 25.5L17.2224 24.7501C17.2156 24.75 17.2088 24.75 17.2019 24.7501L17.2122 25.5ZM20.4366 23.0389C20.4421 22.6247 20.1107 22.2845 19.6966 22.2791C19.2824 22.2736 18.9422 22.605 18.9368 23.0191L20.4366 23.0389ZM14.7366 23.779C15.1508 23.779 15.4866 23.4432 15.4866 23.029C15.4866 22.6148 15.1508 22.279 14.7366 22.279V23.779ZM13.6368 23.029L13.6306 23.779H13.6368V23.029ZM11.8497 21.168L12.5997 21.1732V21.168H11.8497ZM12.7652 17.276L13.5037 17.4069C13.5054 17.3972 13.5069 17.3875 13.5083 17.3777L12.7652 17.276ZM17.2122 13.147L17.2429 12.3976C17.2224 12.3968 17.2018 12.3968 17.1813 12.3976L17.2122 13.147ZM21.6591 17.273L20.9161 17.3751C20.9173 17.3836 20.9186 17.392 20.92 17.4004L21.6591 17.273ZM21.8541 18.673L22.5958 18.5617L22.5956 18.5605L21.8541 18.673ZM22.5747 21.165H21.8246L21.8247 21.1706L22.5747 21.165ZM20.7875 23.027V23.777H20.7937L20.7875 23.027ZM19.6867 22.277C19.2725 22.277 18.9367 22.6128 18.9367 23.027C18.9367 23.4412 19.2725 23.777 19.6867 23.777V22.277ZM14.7366 22.277C14.3224 22.277 13.9866 22.6128 13.9866 23.027C13.9866 23.4412 14.3224 23.777 14.7366 23.777V22.277ZM19.6867 23.777C20.1009 23.777 20.4367 23.4412 20.4367 23.027C20.4367 22.6128 20.1009 22.277 19.6867 22.277V23.777ZM15.7497 12.25H18.6747V10.75H15.7497V12.25ZM13.9877 23.0389C14.0111 24.8183 15.4417 26.2742 17.2224 26.2499L17.2019 24.7501C16.2855 24.7625 15.5005 24.006 15.4875 23.0191L13.9877 23.0389ZM17.2019 26.2499C18.9826 26.2742 20.4132 24.8183 20.4366 23.0389L18.9368 23.0191C18.9238 24.006 18.1388 24.7625 17.2224 24.7501L17.2019 26.2499ZM14.7366 22.279H13.6368V23.779H14.7366V22.279ZM13.6431 22.279C13.0802 22.2744 12.5954 21.7972 12.5997 21.1732L11.0997 21.1628C11.0899 22.5785 12.2047 23.7671 13.6306 23.779L13.6431 22.279ZM12.5997 21.168C12.5997 20.891 12.6929 20.6047 12.8567 20.1992C13.0041 19.8342 13.2306 19.3291 13.3119 18.7873L11.8286 18.5641C11.7802 18.8863 11.6463 19.1908 11.4659 19.6373C11.3019 20.0433 11.0997 20.571 11.0997 21.168H12.5997ZM13.3119 18.7873C13.4042 18.1753 13.4485 17.7181 13.5037 17.4069L12.0267 17.1451C11.9727 17.4499 11.9001 18.0901 11.8286 18.5641L13.3119 18.7873ZM13.5083 17.3777C13.7753 15.4262 15.3588 13.9739 17.243 13.8964L17.1813 12.3976C14.5444 12.5061 12.3839 14.5301 12.0221 17.1743L13.5083 17.3777ZM17.1814 13.8964C19.0647 13.9737 20.648 15.4247 20.9161 17.3751L22.4021 17.1709C22.0388 14.528 19.8787 12.5058 17.2429 12.3976L17.1814 13.8964ZM20.92 17.4004C20.9755 17.7223 21.0198 18.1736 21.1126 18.7855L22.5956 18.5605C22.5246 18.0924 22.45 17.4457 22.3982 17.1456L20.92 17.4004ZM21.1124 18.7843C21.1937 19.3261 21.4202 19.8312 21.5676 20.1962C21.7314 20.6017 21.8246 20.888 21.8246 21.165H23.3247C23.3247 20.568 23.1224 20.0403 22.9584 19.6343C22.778 19.1878 22.6442 18.8839 22.5958 18.5617L21.1124 18.7843ZM21.8247 21.1706C21.8293 21.7949 21.3443 22.2724 20.7813 22.277L20.7937 23.777C22.2201 23.7651 23.3351 22.5756 23.3246 21.1594L21.8247 21.1706ZM20.7875 22.277H19.6867V23.777H20.7875V22.277ZM14.7366 23.777H19.6867V22.277H14.7366V23.777Z" fill="#8F8F8F"/>
</svg>
