<svg width="21" height="21" viewBox="0 0 21 21" fill="none" xmlns="http://www.w3.org/2000/svg">
<path opacity="0.16" d="M13.6246 13.625H7.37461C6.47733 13.6248 5.60395 13.9142 4.88437 14.4502C4.1648 14.9862 3.63748 15.7402 3.38086 16.6C4.26004 17.6282 5.35178 18.4534 6.58078 19.0188C7.80978 19.5842 9.14679 19.8763 10.4996 19.875C11.8524 19.8763 13.1894 19.5842 14.4184 19.0188C15.6474 18.4534 16.7392 17.6282 17.6184 16.6C17.3617 15.7402 16.8344 14.9862 16.1148 14.4502C15.3953 13.9142 14.5219 13.6248 13.6246 13.625Z" fill="white"/>
<path d="M19.875 10.4998C19.878 12.361 19.3244 14.1806 18.2854 15.7248C17.4286 17.0029 16.2699 18.0502 14.912 18.774C13.5541 19.4979 12.0388 19.8759 10.5 19.8748C8.96122 19.8759 7.44587 19.4979 6.08796 18.774C4.73006 18.0502 3.57144 17.0029 2.71458 15.7248C1.89868 14.5085 1.37907 13.1181 1.1974 11.6648C1.01574 10.2116 1.17708 8.73598 1.66849 7.35632C2.1599 5.97667 2.9677 4.73133 4.02715 3.72015C5.0866 2.70896 6.36823 1.96006 7.76928 1.53347C9.17033 1.10687 10.6518 1.01446 12.095 1.26364C13.5383 1.51282 14.903 2.09665 16.0799 2.96834C17.2568 3.84003 18.2131 4.97533 18.8722 6.28322C19.5312 7.59111 19.8747 9.03522 19.875 10.4998Z" stroke="white" stroke-width="2"/>
<path d="M11.5415 7.375C11.5415 7.65127 11.4318 7.91622 11.2364 8.11157C11.0411 8.30692 10.7761 8.41667 10.4999 8.41667V10.5C11.3287 10.5 12.1235 10.1708 12.7096 9.58471C13.2956 8.99866 13.6249 8.2038 13.6249 7.375H11.5415ZM10.4999 8.41667C10.2236 8.41667 9.95865 8.30692 9.7633 8.11157C9.56795 7.91622 9.4582 7.65127 9.4582 7.375H7.37487C7.37487 8.2038 7.70411 8.99866 8.29016 9.58471C8.87621 10.1708 9.67107 10.5 10.4999 10.5V8.41667ZM9.4582 7.375C9.4582 7.09873 9.56795 6.83378 9.7633 6.63843C9.95865 6.44308 10.2236 6.33333 10.4999 6.33333V4.25C9.67107 4.25 8.87621 4.57924 8.29016 5.16529C7.70411 5.75134 7.37487 6.5462 7.37487 7.375H9.4582ZM10.4999 6.33333C10.7761 6.33333 11.0411 6.44308 11.2364 6.63843C11.4318 6.83378 11.5415 7.09873 11.5415 7.375H13.6249C13.6249 6.5462 13.2956 5.75134 12.7096 5.16529C12.1235 4.57924 11.3287 4.25 10.4999 4.25V6.33333ZM3.38112 16.6L2.38216 16.3031L2.2207 16.8479L2.59049 17.2781L3.38112 16.6ZM17.6186 16.6L18.4103 17.2781L18.779 16.8479L18.6176 16.3031L17.6186 16.6ZM7.37487 14.6667H13.6249V12.5833H7.37487V14.6667ZM7.37487 12.5833C6.25305 12.583 5.1611 12.9449 4.26151 13.6151C3.36192 14.2853 2.70278 15.2281 2.38216 16.3031L4.37904 16.8969C4.57171 16.2521 4.96736 15.6868 5.50713 15.285C6.0469 14.8832 6.70196 14.6663 7.37487 14.6667V12.5833ZM10.4999 18.8333C9.29725 18.8347 8.10866 18.5751 7.01613 18.0724C5.9236 17.5698 4.95314 16.836 4.17174 15.9219L2.59049 17.2781C3.56746 18.4203 4.78048 19.3371 6.14594 19.9652C7.51141 20.5934 8.99685 20.918 10.4999 20.9167V18.8333ZM13.6249 14.6667C15.0384 14.6667 16.2353 15.6062 16.6207 16.8979L18.6176 16.3031C18.297 15.2283 17.637 14.2856 16.7376 13.6154C15.8382 12.9452 14.7465 12.5832 13.6249 12.5833V14.6667ZM16.828 15.9219C16.0466 16.836 15.0761 17.5698 13.9836 18.0724C12.8911 18.5751 11.7025 18.8347 10.4999 18.8333V20.9167C12.0029 20.918 13.4883 20.5934 14.8538 19.9652C16.2193 19.3371 17.4333 18.4203 18.4103 17.2781L16.828 15.9219Z" fill="white"/>
</svg>
